<svg width="32" height="32" viewBox="0 0 32 32" fill="none" xmlns="http://www.w3.org/2000/svg">
<g clip-path="url(#clip0_793_5535)">
<path d="M0 8C0 3.58172 3.58172 0 8 0H24C28.4183 0 32 3.58172 32 8V24C32 28.4183 28.4183 32 24 32H8C3.58172 32 0 28.4183 0 24V8Z" fill="#000066"/>
<path fill-rule="evenodd" clip-rule="evenodd" d="M10.9888 13.2336C10.528 12.6789 9.88373 12.4016 9.056 12.4016C8.544 12.4016 8.10027 12.5083 7.7248 12.7216C7.35787 12.9349 7.06347 13.2123 6.8416 13.5536V10.8H4V19.672H6.8416V15.8448C6.8416 15.5035 6.9312 15.2347 7.1104 15.0384C7.2896 14.8336 7.53707 14.7312 7.8528 14.7312C8.16 14.7312 8.4032 14.8336 8.5824 15.0384C8.77013 15.2347 8.864 15.5035 8.864 15.8448V19.672H11.6928V17.2538C11.7652 17.4953 11.8599 17.7233 11.9768 17.9376C12.2925 18.4923 12.7277 18.9189 13.2824 19.2176C13.8456 19.5163 14.4856 19.6656 15.2024 19.6656C15.7997 19.6656 16.3459 19.5504 16.8408 19.32C17.3443 19.0811 17.7581 18.7611 18.0824 18.36C18.4152 17.9504 18.6328 17.4896 18.7352 16.9776H15.7272C15.5907 17.2592 15.3688 17.4 15.0616 17.4C14.5926 17.4 14.3332 17.1 14.2834 16.5H18.4H19.256V21.2H22.0976L22.1138 16.5H23.3H23.896V16.7032C23.896 18.6744 24.8859 19.66 26.8656 19.66H28V17.2408H27.2624C27.0747 17.2408 26.9381 17.2024 26.8528 17.1256C26.776 17.0488 26.7376 16.9251 26.7376 16.7544V16.5H28V14H26.7376V10.8H23.896V14H22.1224L22.1232 13.7568C22.1659 13.5605 22.2427 13.424 22.3536 13.3472C22.4645 13.2619 22.6267 13.2192 22.84 13.2192C22.8997 13.2192 23.0064 13.2277 23.16 13.2448V10.8256C22.8869 10.8085 22.6907 10.8 22.5712 10.8C21.5301 10.8 20.7195 11.0603 20.1392 11.5808C19.5675 12.0928 19.2731 12.8181 19.256 13.7568V14H18.4326L18.4152 13.9696C18.108 13.4235 17.6728 13.0053 17.1096 12.7152C16.5549 12.4165 15.9192 12.2672 15.2024 12.2672C14.4856 12.2672 13.8456 12.4165 13.2824 12.7152C12.7277 13.0139 12.2925 13.4448 11.9768 14.008C11.8361 14.262 11.7276 14.5366 11.6514 14.8318C11.5652 14.1865 11.3443 13.6537 10.9888 13.2336ZM15.7784 14.6864C15.932 14.8059 16.0088 14.9851 16.0088 15.224H14.3192C14.4045 14.7376 14.6989 14.4944 15.2024 14.4944C15.4328 14.4944 15.6248 14.5584 15.7784 14.6864Z" fill="#88EE00"/>
</g>
<defs>
<clipPath id="clip0_793_5535">
<rect width="32" height="32" fill="white"/>
</clipPath>
</defs>
</svg>
