<svg width="148" height="64" viewBox="0 0 148 64" fill="none" xmlns="http://www.w3.org/2000/svg">
<path fill-rule="evenodd" clip-rule="evenodd" d="M43.008 14.976C40.1723 11.5627 36.2076 9.856 31.1139 9.856C27.9631 9.856 25.2324 10.5124 22.9219 11.8252C20.6638 13.1381 18.8521 14.8447 17.4868 16.9452V0H0V54.5969H17.4868V31.0449C17.4868 28.9444 18.0382 27.2903 19.1409 26.0825C20.2437 24.8222 21.7666 24.192 23.7095 24.192C25.6 24.192 27.0966 24.8222 28.1994 26.0825C29.3547 27.2903 29.9323 28.9444 29.9323 31.0449V54.5969H47.3403V39.7155C47.786 41.2019 48.3685 42.6046 49.088 43.9237C51.031 47.337 53.7092 49.9627 57.1225 51.8006C60.5883 53.6386 64.5268 54.5575 68.9379 54.5575C72.6138 54.5575 75.9746 53.8486 79.0203 52.4308C82.1186 50.9604 84.6655 48.9912 86.661 46.5231C88.709 44.0025 90.048 41.1668 90.6782 38.016H72.1674C71.3272 39.7489 69.9619 40.6154 68.0714 40.6154C65.1853 40.6154 63.589 38.7692 63.2825 35.0769H88.6154H93.8831V64H111.37L111.469 35.0769H118.769H122.437V36.3274C122.437 48.4578 128.528 54.5231 140.711 54.5231H147.692V39.6357H143.153C141.998 39.6357 141.158 39.3994 140.633 38.9268C140.16 38.4542 139.924 37.6927 139.924 36.6425V35.0769H147.692V19.6923H139.924V0H122.437V19.6923H111.522L111.527 18.1957C111.79 16.9879 112.263 16.1477 112.945 15.6751C113.628 15.15 114.626 14.8874 115.938 14.8874C116.306 14.8874 116.962 14.9399 117.908 15.0449V0.157536C116.227 0.0525121 115.02 0 114.284 0C107.878 0 102.889 1.60164 99.3182 4.80492C95.7998 7.95569 93.9881 12.4193 93.8831 18.1957V19.6923H88.8158C88.7805 19.6297 88.7449 19.5674 88.709 19.5052C86.8185 16.1444 84.1403 13.5713 80.6745 11.7858C77.2612 9.9479 73.349 9.02892 68.9379 9.02892C64.5268 9.02892 60.5883 9.9479 57.1225 11.7858C53.7092 13.6238 51.031 16.2757 49.088 19.7415C48.2222 21.3048 47.5547 22.9946 47.0854 24.8112C46.5548 20.8398 45.1957 17.5614 43.008 14.976ZM72.4825 23.9163C73.4277 24.6515 73.9003 25.7543 73.9003 27.2246H63.5028C64.0279 24.2314 65.8396 22.7348 68.9379 22.7348C70.3557 22.7348 71.5373 23.1286 72.4825 23.9163Z" fill="#88EE00"/>
</svg>
