<svg width="96" height="96" viewBox="0 0 96 96" fill="none" xmlns="http://www.w3.org/2000/svg">
<path d="M0 24C0 10.7452 10.7452 0 24 0H72C85.2548 0 96 10.7452 96 24V72C96 85.2548 85.2548 96 72 96H24C10.7452 96 0 85.2548 0 72V24Z" fill="#88EE00"/>
<path fill-rule="evenodd" clip-rule="evenodd" d="M32.9664 39.7008C31.584 38.0368 29.6512 37.2048 27.168 37.2048C25.632 37.2048 24.3008 37.5248 23.1744 38.1648C22.0736 38.8048 21.1904 39.6368 20.5248 40.6608V32.4H12V59.016H20.5248V47.5344C20.5248 46.5104 20.7936 45.704 21.3312 45.1152C21.8688 44.5008 22.6112 44.1936 23.5584 44.1936C24.48 44.1936 25.2096 44.5008 25.7472 45.1152C26.3104 45.704 26.592 46.5104 26.592 47.5344V59.016H35.0784V51.7613C35.2957 52.4859 35.5797 53.1698 35.9304 53.8128C36.8776 55.4768 38.1832 56.7568 39.8472 57.6528C41.5368 58.5488 43.4568 58.9968 45.6072 58.9968C47.3992 58.9968 49.0376 58.6512 50.5224 57.96C52.0328 57.2432 53.2744 56.2832 54.2472 55.08C55.2456 53.8512 55.8984 52.4688 56.2056 50.9328H47.1816C46.772 51.7776 46.1064 52.2 45.1848 52.2C43.7778 52.2 42.9997 51.3 42.8502 49.5H55.2H57.768V63.6H66.2928L66.3413 49.5H69.9H71.688V50.1096C71.688 56.0232 74.6576 58.98 80.5968 58.98H84V51.7224H81.7872C81.224 51.7224 80.8144 51.6072 80.5584 51.3768C80.328 51.1464 80.2128 50.7752 80.2128 50.2632V49.5H84V42H80.2128V32.4H71.688V42H66.3671L66.3696 41.2704C66.4976 40.6816 66.728 40.272 67.0608 40.0416C67.3936 39.7856 67.88 39.6576 68.52 39.6576C68.6992 39.6576 69.0192 39.6832 69.48 39.7344V32.4768C68.6608 32.4256 68.072 32.4 67.7136 32.4C64.5904 32.4 62.1584 33.1808 60.4176 34.7424C58.7024 36.2784 57.8192 38.4544 57.768 41.2704V42H55.2977C55.2805 41.9695 55.2631 41.9391 55.2456 41.9088C54.324 40.2704 53.0184 39.016 51.3288 38.1456C49.6648 37.2496 47.7576 36.8016 45.6072 36.8016C43.4568 36.8016 41.5368 37.2496 39.8472 38.1456C38.1832 39.0416 36.8776 40.3344 35.9304 42.024C35.5083 42.7861 35.1829 43.6099 34.9542 44.4954C34.6955 42.5594 34.0329 40.9612 32.9664 39.7008ZM47.3352 44.0592C47.796 44.4176 48.0264 44.9552 48.0264 45.672H42.9576C43.2136 44.2128 44.0968 43.4832 45.6072 43.4832C46.2984 43.4832 46.8744 43.6752 47.3352 44.0592Z" fill="#000066"/>
</svg>
